:FULLY-SPECIFIED
:FORCE-ALL-JOINTS-BE-3DOF
:DEGREES
1937
root 0.908323 14.2106 28.6619 -149.19 70.936 -152.61
lfemur -56.1959 23.236 -13.1501
ltibia 82.7326 -0 0
lfoot -9.69675 12.0432 -0.828537
ltoes -21.408 0 0
rfemur -17.7293 -11.3074 21.6707
rtibia 65.0933 -0 0
rfoot -31.1069 -31.6634 0.00594314
rtoes -25.6125 0 0
lowerback 16.5613 1.28894 4.66173
upperback 0.248567 3.30076 4.91928
thorax -9.18129 1.5822 1.82237
lowerneck -2.84903 10.5112 3.69389
upperneck 2.89908 14.284 -6.69021
head 2.41195 7.05928 -2.36035
lclavicle -9.93579e-15 1.40976e-14 1.05012e-30
lhumerus 28.2334 -29.9118 53.6022
lradius 77.7569 -0 0
lwrist -6.85828 0 0
lhand -27.1591 59.4178 0.127999
lfingers 7.12502 -0 0
lthumb 0.293269 -42.6363 -3.46662
rclavicle -9.93579e-15 1.40976e-14 1.05012e-30
rhumerus -64.0184 27.8599 -88.1423
rradius 112.206 -0 0
rwrist -72.2714 180 180
rhand -7.37104 -5.96276 -11.9376
rfingers 7.12502 -0 0
rthumb 18.3909 -34.0382 -11.3376
1938
root 0.873371 14.2128 28.6698 -149.861 70.5738 -153.367
lfemur -56.3092 23.2112 -13.2935
ltibia 82.9262 -0 0
lfoot -9.80361 12.1925 -0.817764
ltoes -21.4367 0 0
rfemur -17.8921 -11.397 21.7157
rtibia 65.1412 -0 0
rfoot -31.1185 -31.6733 0.00586625
rtoes -25.6293 0 0
lowerback 16.5374 1.25275 4.69056
upperback 0.235457 3.25802 4.91987
thorax -9.17964 1.5609 1.81829
lowerneck -2.83193 10.5493 3.73175
upperneck 2.85476 14.335 -6.76334
head 2.40456 7.08518 -2.3886
lclavicle -1.00353e-14 1.43008e-14 1.03653e-30
lhumerus 28.0755 -30.2759 53.3588
lradius 78.3188 -0 0
lwrist -6.40719 0 0
lhand -27.1027 59.4615 0.126342
lfingers 7.12502 -0 0
lthumb 0.357865 -43.6563 -3.41377
rclavicle -1.00353e-14 1.43008e-14 1.03653e-30
rhumerus -63.9811 27.991 -88.2649
rradius 112.095 -0 0
rwrist -73.1081 180 180
rhand -7.06917 -6.72722 -11.7655
rfingers 7.12502 -0 0
rthumb 18.6811 -34.793 -11.1749
1939
root 0.838418 14.2151 28.6777 -150.507 70.2089 -154.097
lfemur -56.4224 23.1861 -13.4368
ltibia 83.1198 -0 0
lfoot -9.91045 12.3417 -0.806713
ltoes -21.4654 0 0
rfemur -18.055 -11.4865 21.761
rtibia 65.189 -0 0
rfoot -31.1301 -31.6831 0.00578736
rtoes -25.6461 0 0
lowerback 16.5135 1.21656 4.7194
upperback 0.222346 3.21529 4.92048
thorax -9.178 1.53961 1.81421
lowerneck -2.81479 10.5875 3.76963
upperneck 2.81035 14.3858 -6.83652
head 2.39716 7.11106 -2.41686
lclavicle -1.01347e-14 1.45041e-14 1.0226e-30
lhumerus 27.9188 -30.6407 53.1157
lradius 78.8808 -0 0
lwrist -5.9561 0 0
lhand -27.0462 59.5051 0.124642
lfingers 7.12502 -0 0
lthumb 0.421505 -44.6762 -3.35979
rclavicle -1.01347e-14 1.45041e-14 1.0226e-30
rhumerus -63.9441 28.1223 -88.3877
rradius 111.984 -0 0
rwrist -73.9447 180 180
rhand -6.76985 -7.49027 -11.5896
rfingers 7.12502 -0 0
rthumb 18.969 -35.5464 -11.0084
1940
root 0.803466 14.2173 28.6855 -151.127 69.8412 -154.803
lfemur -56.5356 23.1607 -13.5801
ltibia 83.3133 -0 0
lfoot -10.0173 12.4909 -0.795384
ltoes -21.4941 0 0
rfemur -18.218 -11.5759 21.8065
rtibia 65.2369 -0 0
rfoot -31.1417 -31.693 0.00570647
rtoes -25.6629 0 0
lowerback 16.4896 1.18039 4.74826
upperback 0.209235 3.17255 4.92109
thorax -9.17635 1.51831 1.81013
lowerneck -2.79763 10.6256 3.80752
upperneck 2.76587 14.4367 -6.90976
head 2.38974 7.13695 -2.44513
lclavicle -1.02342e-14 1.47073e-14 1.00831e-30
lhumerus 27.7633 -31.0059 52.8728
lradius 79.4427 -0 0
lwrist -5.50501 0 0
lhand -26.9898 59.5488 0.122899
lfingers 7.12502 -0 0
lthumb 0.48417 -45.6959 -3.30469
rclavicle -1.02342e-14 1.47073e-14 1.00831e-30
rhumerus -63.9073 28.2536 -88.5104
rradius 111.873 -0 0
rwrist -74.7814 180 180
rhand -6.47314 -8.25189 -11.4097
rfingers 7.12502 -0 0
rthumb 19.2545 -36.2986 -10.8382
1941
root 0.768514 14.2196 28.6934 -151.724 69.471 -155.485
lfemur -56.6486 23.1351 -13.7232
ltibia 83.5069 -0 0
lfoot -10.124 12.6402 -0.783776
ltoes -21.5228 0 0
rfemur -18.3811 -11.6651 21.8524
rtibia 65.2847 -0 0
rfoot -31.1534 -31.7028 0.00562358
rtoes -25.6797 0 0
lowerback 16.4656 1.14423 4.77713
upperback 0.196125 3.12981 4.92171
thorax -9.17471 1.49702 1.80605
lowerneck -2.78043 10.6638 3.84543
upperneck 2.72131 14.4874 -6.98306
head 2.3823 7.16283 -2.4734
lclavicle -1.03337e-14 1.49106e-14 9.93661e-31
lhumerus 27.609 -31.3718 52.6301
lradius 80.0047 -0 0
lwrist -5.05392 0 0
lhand -26.9333 59.5924 0.121113
lfingers 7.12502 -0 0
lthumb 0.545838 -46.7155 -3.24848
rclavicle -1.03337e-14 1.49106e-14 9.93661e-31
rhumerus -63.8708 28.385 -88.6333
rradius 111.763 -0 0
rwrist -75.6181 180 180
rhand -6.17909 -9.01206 -11.2261
rfingers 7.12502 -0 0
rthumb 19.5375 -37.0495 -10.6643
1942
root 0.733562 14.2218 28.7012 -152.299 69.0984 -156.145
lfemur -56.7616 23.1092 -13.8663
ltibia 83.7005 -0 0
lfoot -10.2308 12.7893 -0.771891
ltoes -21.5515 0 0
rfemur -18.5444 -11.7543 21.8985
rtibia 65.3325 -0 0
rfoot -31.165 -31.7126 0.0055387
rtoes -25.6965 0 0
lowerback 16.4417 1.10808 4.80602
upperback 0.183014 3.08707 4.92234
thorax -9.17306 1.47573 1.80196
lowerneck -2.76321 10.7019 3.88336
upperneck 2.67667 14.5381 -7.05641
head 2.37486 7.18871 -2.50167
lclavicle -1.04331e-14 1.51139e-14 9.78665e-31
lhumerus 27.4559 -31.7382 52.3876
lradius 80.5666 -0 0
lwrist -4.60282 0 0
lhand -26.8769 59.6361 0.119283
lfingers 7.12502 -0 0
lthumb 0.606492 -47.735 -3.19118
rclavicle -1.04331e-14 1.51139e-14 9.78665e-31
rhumerus -63.8346 28.5165 -88.7561
rradius 111.652 -0 0
rwrist -76.4547 180 180
rhand -5.88773 -9.77078 -11.0386
rfingers 7.12502 -0 0
rthumb 19.818 -37.7991 -10.4869
1943
root 0.69861 14.224 28.7091 -152.852 68.7235 -156.783
lfemur -56.8745 23.083 -14.0093
ltibia 83.8941 -0 0
lfoot -10.3375 12.9385 -0.759727
ltoes -21.5802 0 0
rfemur -18.7077 -11.8433 21.9449
rtibia 65.3804 -0 0
rfoot -31.1766 -31.7225 0.00545183
rtoes -25.7133 0 0
lowerback 16.4177 1.07194 4.83492
upperback 0.169904 3.04434 4.92298
thorax -9.17141 1.45443 1.79788
lowerneck -2.74597 10.74 3.9213
upperneck 2.63196 14.5888 -7.12983
head 2.3674 7.21458 -2.52995
lclavicle -1.05326e-14 1.53171e-14 9.63315e-31
lhumerus 27.304 -32.1051 52.1454
lradius 81.1285 -0 0
lwrist -4.15173 0 0
lhand -26.8205 59.6797 0.117411
lfingers 7.12502 -0 0
lthumb 0.666112 -48.7544 -3.13282
rclavicle -1.05326e-14 1.53171e-14 9.63315e-31
rhumerus -63.7987 28.648 -88.8791
rradius 111.541 -0 0
rwrist -77.2914 180 180
rhand -5.59911 -10.528 -10.8473
rfingers 7.12502 -0 0
rthumb 20.096 -38.5474 -10.3058
